<svg xmlns="http://www.w3.org/2000/svg" width="80" height="80" fill="none" viewBox="0 0 80 80">
  <path fill="#242F96" fill-rule="evenodd" d="M40 2.5C18.82 2.5 1.667 19.654 1.667 40.833c0 16.963 10.973 31.29 26.21 36.37 1.917.334 2.636-.816 2.636-1.822 0-.91-.048-3.929-.048-7.14-9.632 1.774-12.123-2.347-12.89-4.504-.431-1.102-2.3-4.504-3.93-5.414-1.34-.719-3.258-2.492-.047-2.54 3.019-.048 5.175 2.78 5.894 3.93 3.45 5.797 8.96 4.168 11.164 3.162.336-2.492 1.342-4.169 2.444-5.127-8.53-.958-17.442-4.265-17.442-18.927 0-4.169 1.486-7.619 3.93-10.302-.384-.959-1.726-4.888.383-10.159 0 0 3.21-1.006 10.541 3.93 3.067-.863 6.325-1.294 9.584-1.294 3.258 0 6.517.431 9.583 1.294 7.331-4.984 10.542-3.93 10.542-3.93 2.108 5.271.767 9.2.383 10.159 2.444 2.683 3.93 6.085 3.93 10.302 0 14.71-8.961 17.969-17.49 18.927 1.39 1.198 2.587 3.498 2.587 7.092 0 5.127-.048 9.248-.048 10.541 0 1.007.72 2.204 2.636 1.821 15.141-5.08 26.114-19.454 26.114-36.369C78.333 19.654 61.18 2.5 40 2.5Z" clip-rule="evenodd"/>
</svg>
