<svg xmlns="http://www.w3.org/2000/svg" width="64" height="62" fill="none" viewBox="0 0 64 62">
  <path stroke="#fff" stroke-linecap="round" stroke-linejoin="round" stroke-width="3.75" d="M32 59.75s-9.22-1.25-15.077-1.25c-2.79 0-6.308.284-9.227.58C4.678 59.389 2 57.047 2 54.015V15.51c0-1.982 1.17-3.793 3.073-4.344 1.042-.302 2.254-.587 3.484-.735M32 59.75s8.913-1.25 14.77-1.25c2.849 0 6.53.296 9.558.6 3.01.3 5.672-2.037 5.672-5.062V15.367c0-1.908-1.088-3.666-2.924-4.187a19.955 19.955 0 0 0-3.045-.62M32 59.75v-7.51m0 0S24.186 51 19.5 51c-1.637 0-3.502.152-5.237.349-3.13.356-5.992-2.038-5.968-5.187l.262-35.73M32 52.24S39.406 51 44.092 51c1.742 0 3.799.19 5.697.427 3.11.39 5.98-1.959 6.002-5.093l.24-35.774M32 52.24V3.5M8.557 10.432V7.698c0-2.427 1.744-4.506 4.15-4.825 2.353-.312 5.275-.623 7.571-.623C24.882 2.25 32 3.5 32 3.5m24.03 7.06V7.716c0-2.435-1.754-4.518-4.17-4.832-2.425-.316-5.463-.634-7.845-.634C39.298 2.25 32 3.5 32 3.5"/>
</svg>
